<?xml version="1.0" encoding="UTF-8"?>
<!-- Generated by Pixelmator Pro 3.7.1 -->
<svg width="500" height="500" viewBox="0 0 500 500" xmlns="http://www.w3.org/2000/svg">
    <g id="Circle" style="isolation:isolate">
        <g id="Bar">
            <filter id="filter1" x="0" y="0" width="500" height="500" filterUnits="userSpaceOnUse" primitiveUnits="userSpaceOnUse" color-interpolation-filters="sRGB">
                <feGaussianBlur stdDeviation="49.748925"/>
            </filter>
            <path id="Second-Shadow" fill="#00ff7f" fill-rule="evenodd" stroke="none" filter="url(#filter1)" d="M 278.166656 111.002411 L 278.166687 111.044312 L 278.166656 375.162811 L 278.166656 375.164215 C 278.166656 399.466095 297.567657 419.166656 321.5 419.166656 C 345.432343 419.166656 364.833344 399.466095 364.833344 375.164215 C 364.833344 374.363983 364.812286 373.568726 364.770752 372.778992 L 364.770752 289.397339 C 364.812286 288.607605 364.833344 287.812317 364.833344 287.012085 C 364.833344 286.211853 364.812286 285.416565 364.770752 284.626831 L 364.770752 201.392487 C 364.812286 200.602753 364.833344 199.807495 364.833344 199.007233 C 364.833344 198.207001 364.812286 197.411743 364.770752 196.622009 L 364.770752 113.387634 C 364.812286 112.5979 364.833344 111.802643 364.833344 111.002411 C 364.833344 86.700531 345.432343 67 321.5 67 C 297.567657 67 278.166656 86.700531 278.166656 111.002411 Z"/>
            <path id="Top" fill="#00ff7f" fill-rule="evenodd" stroke="none" d="M 278.166656 111.002411 L 278.166687 111.044312 L 278.166656 375.162811 L 278.166656 375.164215 C 278.166656 399.466095 297.567657 419.166656 321.5 419.166656 C 345.432343 419.166656 364.833344 399.466095 364.833344 375.164215 C 364.833344 374.363983 364.812286 373.568726 364.770752 372.778992 L 364.770752 289.397339 C 364.812286 288.607605 364.833344 287.812317 364.833344 287.012085 C 364.833344 286.211853 364.812286 285.416565 364.770752 284.626831 L 364.770752 201.392487 C 364.812286 200.602753 364.833344 199.807495 364.833344 199.007233 C 364.833344 198.207001 364.812286 197.411743 364.770752 196.622009 L 364.770752 113.387634 C 364.812286 112.5979 364.833344 111.802643 364.833344 111.002411 C 364.833344 86.700531 345.432343 67 321.5 67 C 297.567657 67 278.166656 86.700531 278.166656 111.002411 Z"/>
        </g>
        <g id="Group">
            <filter id="filter2" x="0" y="0" width="500" height="500" filterUnits="userSpaceOnUse" primitiveUnits="userSpaceOnUse" color-interpolation-filters="sRGB">
                <feGaussianBlur stdDeviation="49.166667"/>
            </filter>
            <path id="path1" fill="#00ff7f" fill-rule="evenodd" stroke="none" filter="url(#filter2)" d="M 226.071884 250.03688 C 226.071884 213.381622 196.356934 183.666656 159.701675 183.666656 C 123.04641 183.666656 93.331451 213.381622 93.331451 250.03688 C 93.331451 286.692139 123.04641 316.407104 159.701675 316.407104 C 196.356934 316.407104 226.071884 286.692139 226.071884 250.03688 Z"/>
            <path id="path2" fill="#00ff7f" fill-rule="evenodd" stroke="none" d="M 226.071884 250.03688 C 226.071884 213.381622 196.356934 183.666656 159.701675 183.666656 C 123.04641 183.666656 93.331451 213.381622 93.331451 250.03688 C 93.331451 286.692139 123.04641 316.407104 159.701675 316.407104 C 196.356934 316.407104 226.071884 286.692139 226.071884 250.03688 Z"/>
        </g>
    </g>
    <g id="g1">
        <path id="Oval-copy-4" fill="#00ff7f" fill-rule="evenodd" stroke="none" d="M 226.071884 250.03688 C 226.071884 213.381622 196.356934 183.666656 159.701675 183.666656 C 123.04641 183.666656 93.331451 213.381622 93.331451 250.03688 C 93.331451 286.692139 123.04641 316.407104 159.701675 316.407104 C 196.356934 316.407104 226.071884 286.692139 226.071884 250.03688 Z"/>
        <path id="Oval-copy-3" fill="#00ff7f" fill-rule="evenodd" stroke="none" d="M 278.166656 111.002411 L 278.166687 111.044312 L 278.166656 375.162811 L 278.166656 375.164215 C 278.166656 399.466095 297.567657 419.166656 321.5 419.166656 C 345.432343 419.166656 364.833344 399.466095 364.833344 375.164215 C 364.833344 374.363983 364.812286 373.568726 364.770752 372.778992 L 364.770752 289.397339 C 364.812286 288.607605 364.833344 287.812317 364.833344 287.012085 C 364.833344 286.211853 364.812286 285.416565 364.770752 284.626831 L 364.770752 201.392487 C 364.812286 200.602753 364.833344 199.807495 364.833344 199.007233 C 364.833344 198.207001 364.812286 197.411743 364.770752 196.622009 L 364.770752 113.387634 C 364.812286 112.5979 364.833344 111.802643 364.833344 111.002411 C 364.833344 86.700531 345.432343 67 321.5 67 C 297.567657 67 278.166656 86.700531 278.166656 111.002411 Z"/>
    </g>
</svg>
